<svg width="62" height="62" viewBox="0 0 62 62" fill="none" xmlns="http://www.w3.org/2000/svg">
<rect width="2" height="2" transform="matrix(-1 0 0 1 62 60)" fill="#022663" fill-opacity="0.3"/>
<rect width="2" height="2" transform="matrix(-1 0 0 1 62 48)" fill="#022663" fill-opacity="0.3"/>
<rect width="2" height="2" transform="matrix(-1 0 0 1 62 36)" fill="#022663" fill-opacity="0.3"/>
<rect width="2" height="2" transform="matrix(-1 0 0 1 62 24)" fill="#022663" fill-opacity="0.3"/>
<rect width="2" height="2" transform="matrix(-1 0 0 1 62 12)" fill="#022663" fill-opacity="0.3"/>
<rect width="2" height="2" transform="matrix(-1 0 0 1 62 0)" fill="#022663" fill-opacity="0.3"/>
<rect width="2" height="2" transform="matrix(-1 0 0 1 50 60)" fill="#022663" fill-opacity="0.3"/>
<rect width="2" height="2" transform="matrix(-1 0 0 1 50 48)" fill="#022663" fill-opacity="0.3"/>
<rect width="2" height="2" transform="matrix(-1 0 0 1 50 36)" fill="#022663" fill-opacity="0.3"/>
<rect width="2" height="2" transform="matrix(-1 0 0 1 50 24)" fill="#022663" fill-opacity="0.3"/>
<rect width="2" height="2" transform="matrix(-1 0 0 1 50 12)" fill="#022663" fill-opacity="0.3"/>
<rect width="2" height="2" transform="matrix(-1 0 0 1 50 0)" fill="#022663" fill-opacity="0.3"/>
<rect width="2" height="2" transform="matrix(-1 0 0 1 38 60)" fill="#022663" fill-opacity="0.3"/>
<rect width="2" height="2" transform="matrix(-1 0 0 1 38 48)" fill="#022663" fill-opacity="0.3"/>
<rect width="2" height="2" transform="matrix(-1 0 0 1 38 36)" fill="#022663" fill-opacity="0.3"/>
<rect width="2" height="2" transform="matrix(-1 0 0 1 38 24)" fill="#022663" fill-opacity="0.3"/>
<rect width="2" height="2" transform="matrix(-1 0 0 1 38 12)" fill="#022663" fill-opacity="0.3"/>
<rect width="2" height="2" transform="matrix(-1 0 0 1 38 0)" fill="#022663" fill-opacity="0.3"/>
<rect width="2" height="2" transform="matrix(-1 0 0 1 26 60)" fill="#022663" fill-opacity="0.3"/>
<rect width="2" height="2" transform="matrix(-1 0 0 1 26 48)" fill="#022663" fill-opacity="0.3"/>
<rect width="2" height="2" transform="matrix(-1 0 0 1 26 36)" fill="#022663" fill-opacity="0.3"/>
<rect width="2" height="2" transform="matrix(-1 0 0 1 26 24)" fill="#022663" fill-opacity="0.3"/>
<rect width="2" height="2" transform="matrix(-1 0 0 1 26 12)" fill="#022663" fill-opacity="0.3"/>
<rect width="2" height="2" transform="matrix(-1 0 0 1 26 0)" fill="#022663" fill-opacity="0.3"/>
<rect width="2" height="2" transform="matrix(-1 0 0 1 14 60)" fill="#022663" fill-opacity="0.3"/>
<rect width="2" height="2" transform="matrix(-1 0 0 1 14 48)" fill="#022663" fill-opacity="0.3"/>
<rect width="2" height="2" transform="matrix(-1 0 0 1 14 36)" fill="#022663" fill-opacity="0.3"/>
<rect width="2" height="2" transform="matrix(-1 0 0 1 14 24)" fill="#022663" fill-opacity="0.3"/>
<rect width="2" height="2" transform="matrix(-1 0 0 1 14 12)" fill="#022663" fill-opacity="0.3"/>
<rect width="2" height="2" transform="matrix(-1 0 0 1 14 0)" fill="#022663" fill-opacity="0.3"/>
<rect width="2" height="2" transform="matrix(-1 0 0 1 2 60)" fill="#022663" fill-opacity="0.3"/>
<rect width="2" height="2" transform="matrix(-1 0 0 1 2 48)" fill="#022663" fill-opacity="0.3"/>
<rect width="2" height="2" transform="matrix(-1 0 0 1 2 36)" fill="#022663" fill-opacity="0.3"/>
<rect width="2" height="2" transform="matrix(-1 0 0 1 2 24)" fill="#022663" fill-opacity="0.3"/>
<rect width="2" height="2" transform="matrix(-1 0 0 1 2 12)" fill="#022663" fill-opacity="0.3"/>
<rect width="2" height="2" transform="matrix(-1 0 0 1 2 0)" fill="#022663" fill-opacity="0.3"/>
</svg>
